<?xml version="1.0" encoding="UTF-8" standalone="no"?>
<!-- Created with Inkscape (http://www.inkscape.org/) -->

<svg
   width="512.00049"
   height="511.64423"
   viewBox="0 0 135.46679 135.37254"
   version="1.1"
   id="svg5"
   xml:space="preserve"
   xmlns="http://www.w3.org/2000/svg"
   xmlns:svg="http://www.w3.org/2000/svg"><defs
     id="defs2"><linearGradient
       id="linearGradient41445"><stop
         style="stop-color:#ffffff;stop-opacity:1;"
         offset="0"
         id="stop41443" /></linearGradient><style
       id="style6382">
      .cls-3{fill:#980200}.cls-4{fill:red}
    </style></defs><g
     id="layer1"
     style="display:inline"
     transform="translate(6.0025001e-5,-0.46982084)"><g
       id="layer4"><path
         style="display:inline;fill:#b02323;fill-opacity:1;stroke-width:7.22755"
         d="m 112.44223,57.468637 -35.393707,26.800613 35.790067,27.10074 13.58625,-10.28066 c 12.05172,-9.119438 12.06002,-23.918123 0,-33.037563 z"
         id="path1358" /><path
         style="display:inline;fill:#b02323;fill-opacity:1;stroke-width:7.22755"
         d="M 23.022884,57.467461 9.0387245,68.051767 c -12.0517127,9.11944 -12.0517127,23.918125 0,33.037563 L 22.626526,111.37116 58.418142,84.26925 Z"
         id="path1356" /><path
         style="display:inline;fill:#ff4f4f;fill-opacity:1;stroke-width:7.22755"
         d="M 67.733337,91.322839 31.94482,118.42241 45.933113,129.00749 c 12.043409,9.11315 31.553932,9.11315 43.597334,0 l 13.989843,-10.58626 z"
         id="path1360" /><path
         style="display:inline;fill:#ff4f4f;fill-opacity:1;stroke-width:7.22755"
         d="m 67.734881,33.292483 c -7.889469,0 -15.780068,2.278284 -21.801768,6.834858 L 32.340145,50.415431 67.733337,77.215653 103.12497,50.416607 89.530447,40.127341 C 83.512899,35.570767 75.624351,33.292483 67.734881,33.292483 Z"
         id="path26" /></g><g
       id="layer5"><path
         style="display:inline;fill:#48c956;fill-opacity:1;stroke-width:7.22755"
         d="M 65.387049,29.662068 C 63.65055,21.50462 59.503207,13.266313 51.397256,7.5127753 44.087668,2.3508926 33.747166,-0.14643867 23.833077,0.59933614 22.720897,9.7759117 28.410937,19.246348 38.391775,24.548071 c 7.782921,4.345684 17.402026,6.560078 26.995274,6.956754"
         id="path12158" /><path
         style="display:inline;fill:#48c956;fill-opacity:1;stroke-width:7.22755"
         d="M 65.393691,29.662068 C 67.130169,21.50462 71.277513,13.266313 79.383461,7.5127753 86.693049,2.3508926 97.033551,-0.14643867 106.94764,0.59933614 108.05982,9.7759117 102.36978,19.246348 92.388942,24.548071 84.606021,28.893755 74.986916,31.108149 65.393691,31.504825"
         id="path361" /></g></g><style
     type="text/css"
     id="style22550">
	.st0{fill:#4B4B4B;}
</style><style
     type="text/css"
     id="style33903">
	.st0{fill:#4B4B4B;}
</style><style
     type="text/css"
     id="style33923">
	.st0{fill:#4B4B4B;}
</style><style
     type="text/css"
     id="style43783">

	.st0{fill:#4B4B4B;}

</style><style
     type="text/css"
     id="style43811">

	.st0{fill:#4B4B4B;}

</style><style
     type="text/css"
     id="style43839">

	.st0{fill:#4B4B4B;}

</style><style
     type="text/css"
     id="style44212">
	.st0{fill:#4B4B4B;}
</style></svg>
