<?xml version="1.0" encoding="UTF-8" standalone="no"?>
<!-- Created with Inkscape (http://www.inkscape.org/) -->

<svg
   width="512.00049"
   height="511.64423"
   viewBox="0 0 135.46679 135.37254"
   version="1.1"
   id="svg5"
   xml:space="preserve"
   sodipodi:docname="pi-hole-client-icon-large-round.svg"
   inkscape:version="1.2.1 (9c6d41e410, 2022-07-14)"
   inkscape:export-filename="pi-hole-client-icon-large-round.png"
   inkscape:export-xdpi="191.99982"
   inkscape:export-ydpi="191.99982"
   xmlns:inkscape="http://www.inkscape.org/namespaces/inkscape"
   xmlns:sodipodi="http://sodipodi.sourceforge.net/DTD/sodipodi-0.dtd"
   xmlns="http://www.w3.org/2000/svg"
   xmlns:svg="http://www.w3.org/2000/svg"><sodipodi:namedview
     id="namedview176"
     pagecolor="#ffffff"
     bordercolor="#000000"
     borderopacity="0.25"
     inkscape:showpageshadow="2"
     inkscape:pageopacity="0.0"
     inkscape:pagecheckerboard="0"
     inkscape:deskcolor="#d1d1d1"
     showgrid="false"
     inkscape:zoom="0.68652278"
     inkscape:cx="-656.93377"
     inkscape:cy="434.79985"
     inkscape:window-width="2108"
     inkscape:window-height="1230"
     inkscape:window-x="223"
     inkscape:window-y="81"
     inkscape:window-maximized="0"
     inkscape:current-layer="layer1" /><defs
     id="defs2"><linearGradient
       id="linearGradient16557"
       inkscape:swatch="solid"><stop
         style="stop-color:#b3b3b3;stop-opacity:1;"
         offset="0"
         id="stop16555" /></linearGradient><linearGradient
       id="linearGradient41445"><stop
         style="stop-color:#ffffff;stop-opacity:1;"
         offset="0"
         id="stop41443" /></linearGradient><style
       id="style6382">
      .cls-3{fill:#980200}.cls-4{fill:red}
    </style><linearGradient
       id="New_Gradient_Swatch_1"
       x1="2.71"
       x2="69.77"
       y1="20.04"
       y2="20.04"
       gradientUnits="userSpaceOnUse"><stop
         offset="0"
         stop-color="#12b212"
         id="stop283"
         style="stop-color:#980200;stop-opacity:1;" /><stop
         offset="1"
         stop-color="#0f0"
         id="stop285" /></linearGradient><style
       id="style288">
      .cls-3{fill:#980200}.cls-4{fill:red}
    </style><linearGradient
       id="New_Gradient_Swatch_1-4"
       x1="2.71"
       x2="69.77"
       y1="20.04"
       y2="20.04"
       gradientUnits="userSpaceOnUse"><stop
         offset="0"
         stop-color="#12b212"
         id="stop409" /><stop
         offset="1"
         stop-color="#0f0"
         id="stop411" /></linearGradient><style
       id="style414">
      .cls-3{fill:#980200}.cls-4{fill:red}
    </style></defs><g
     inkscape:groupmode="layer"
     id="layer3"
     inkscape:label="back"
     style="display:inline"
     transform="matrix(0.29160669,0,0,0.29160669,0,95.963676)"
     sodipodi:insensitive="true"><rect
       style="display:inline;fill:#ff5c4d;fill-opacity:1;stroke-width:0.907328"
       id="rect9648-1-5"
       width="464.55267"
       height="464.55267"
       x="-8.8817842e-16"
       y="-329.086"
       ry="71.36805" /></g><g
     inkscape:groupmode="layer"
     id="layer1"
     inkscape:label="front"
     style="display:inline"
     sodipodi:insensitive="true"><g
       id="g8811"
       transform="matrix(0.75,0,0,0.75,16.933333,16.933333)"><g
         id="g463"
         style="fill:#ffffff"
         transform="matrix(1.5338153,0,0,1.5334692,9.8181776e-5,-63.776984)"><path
           d="m 88.32,85.75 c -0.09,1.57 -0.65,16.22 -17.11,17.11 -10,0.73 -17.37,-7.18 -27.08,-7.18 -24.21,1.79 -21.21,34.22 0,34.22 a 19.92,19.92 0 0 0 14.14,-5.83 L 82.46,99.9 a 19.94,19.94 0 0 0 5.83,-14.15"
           class="cls-4"
           id="path428"
           style="fill:#ffffff" /><path
           d="m 0.08,85.75 c 0.09,-1.57 0.65,-16.22 17.11,-17.11 10,-0.72 17.37,7.19 27.08,7.19 24.21,-1.8 21.21,-34.23 0,-34.23 A 19.92,19.92 0 0 0 30.13,47.43 L 5.94,71.61 A 19.94,19.94 0 0 0 0.11,85.75"
           class="cls-4"
           id="path432"
           style="fill:#ffffff" /></g><g
         id="g467"
         style="opacity:1;fill:#ffbeb8;fill-opacity:1"
         transform="matrix(1.5338153,0,0,1.5334692,9.8181776e-5,-63.776984)"><path
           d="m 44.16,129.93 c -1.57,-0.1 -16.22,-0.65 -17.11,-17.11 -0.72,-10 7.19,-17.38 7.19,-27.08 C 32.44,61.53 0,64.53 0,85.74 A 19.94,19.94 0 0 0 5.83,99.88 L 30,124.06 a 20,20 0 0 0 14.14,5.84"
           class="cls-3"
           id="path426"
           style="fill:#ffbeb8;fill-opacity:1" /><path
           d="m 44.16,41.59 c 1.57,0.09 16.22,0.65 17.11,17.11 0.73,10 -7.18,17.38 -7.18,27.08 1.79,24.21 34.22,21.21 34.22,0 A 19.94,19.94 0 0 0 82.48,71.64 L 58.3,47.45 A 20,20 0 0 0 44.16,41.62"
           class="cls-3"
           id="path430"
           style="fill:#ffbeb8;fill-opacity:1" /></g></g></g><style
     type="text/css"
     id="style22550">
	.st0{fill:#4B4B4B;}
</style><style
     type="text/css"
     id="style33903">
	.st0{fill:#4B4B4B;}
</style><style
     type="text/css"
     id="style33923">
	.st0{fill:#4B4B4B;}
</style><style
     type="text/css"
     id="style43783">

	.st0{fill:#4B4B4B;}

</style><style
     type="text/css"
     id="style43811">

	.st0{fill:#4B4B4B;}

</style><style
     type="text/css"
     id="style43839">

	.st0{fill:#4B4B4B;}

</style><style
     type="text/css"
     id="style44212">
	.st0{fill:#4B4B4B;}
</style><style
     type="text/css"
     id="style16596">
	.st0{fill:#4B4B4B;}
</style></svg>
